<svg id="Layer_1" data-name="Layer 1" xmlns="http://www.w3.org/2000/svg" viewBox="0 0 300 300" style="background-color:white"><defs><style>.cls-1{fill:#039c49;}.cls-2{fill:#121c21;}</style></defs><title>200117</title><circle class="cls-1" cx="150.55" cy="150.45" r="30"/><path class="cls-2" d="M142,59.18,44.43,111.35a2,2,0,0,0-1,1.33L28.47,180a2,2,0,0,0,1.1,2.24l126.87,59.7a3,3,0,0,0,2.52,0l81.45-37a3,3,0,0,0,1.69-2.08L271.92,68.6a2,2,0,0,0-1.83-2.43L144.17,58.72A4.13,4.13,0,0,0,142,59.18Zm14.9,179L38.29,182.3H82.34L180,196.23Zm26.87-41.36,50,7.14-71.92,32.68ZM85.22,179.06l37.17-73.16L236.94,92.68,181.85,192.84Zm154.3-90.31L124.35,102l20.17-39.68L265.18,69.5ZM120.05,102.53,54.44,110.1l84.79-45.31ZM46.69,114.64l71.39-8.24L81.35,178.68H32.46ZM238.81,201l-53.13-7.58L241.6,91.7l25.78-19.34Z"/></svg>