<svg id="Layer_1" data-name="Layer 1" xmlns="http://www.w3.org/2000/svg" viewBox="0 0 256 256"><defs><style>.cls-1{fill:#2d36fb;}</style></defs><title>Artboard 1</title><g id="dark_logo" data-name="dark logo"><path class="cls-1" d="M55.6,189.1h60.3c18,0,31.1-10.4,40.8-24.4,5.8-8.4,11.8-15.9,22.9-15.9H216V129.7H165.5c-11.2,0-17.1,7.5-22.9,15.9C133,159.6,120,170,101.9,170H55.6Z"/><path class="cls-1" d="M23.4,163.3H98.1c18,0,31.1-10.4,40.8-24.4,5.8-8.4,11.8-15.9,22.9-15.9h70.9V99.1H161.8c-22,0-28.6,10.3-37.7,22.3-6.7,8.9-13.8,18.1-26.1,18.1H23.4Z"/><path class="cls-1" d="M41.3,133.1H93.4c12.2,0,19.4-9.3,26.1-18.1,9.1-12,15.7-22.3,37.7-22.3H197V72H147c-22,0-28.6,10.3-37.7,22.3-6.7,8.9-13.8,18.1-26.1,18.1H41.3Z"/></g></svg>